<?xml version="1.0" encoding="UTF-8"?><svg id="Camada_2" xmlns="http://www.w3.org/2000/svg" viewBox="0 0 744.85 747.08"><g id="Camada_1-2"><path id="fa3b9e12-7275-481e-bee9-64fd9595a50d-88" d="m71.63,629.35l-6.56-25.87c-11.63-4.93-23.53-9.2-35.64-12.79l-.83,12.02-3.36-13.25c-15.02-4.29-25.24-6.18-25.24-6.18,0,0,13.8,52.49,42.75,92.62l33.73,5.93-26.21,3.78c3.64,4.38,7.56,8.53,11.72,12.42,42.11,39.09,89.02,57.03,104.77,40.06s-5.62-62.41-47.74-101.5c-13.06-12.12-29.46-21.84-45.88-29.5l-1.53,22.26Z" style="fill:#f2f2f2;"/><path id="bde08021-c30f-4979-a9d8-cb90b72b5ca2-89" d="m134.02,601.24l7.76-25.54c-7.41-10.23-15.39-20.04-23.9-29.37l-6.92,9.86,3.97-13.08c-10.64-11.44-18.41-18.34-18.41-18.34,0,0-15.32,52.07-11.27,101.38l25.82,22.51-24.39-10.31c.85,5.63,2.06,11.21,3.61,16.69,15.85,55.23,46.73,94.84,68.98,88.45s27.45-56.34,11.6-111.57c-4.91-17.12-13.93-33.93-24.02-48.97l-12.82,18.26Z" style="fill:#f2f2f2;"/><path id="b3ac2088-de9b-4f7f-bc99-0ed9705c1a9d-90" d="m519.75,176.98h-4.09v-112.1C515.66,29.05,486.61,0,450.78,0h-237.51c-35.83,0-64.88,29.05-64.88,64.88v615c0,35.83,29.05,64.88,64.88,64.88h237.51c35.83,0,64.88-29.05,64.88-64.88v-423.11h4.09v-79.79Z" style="fill:#e6e6e6;"/><path id="b2715b96-3117-487c-acc0-20904544b5b7-91" d="m453.39,16.87h-31c4.8,11.77-.85,25.21-12.62,30.01-2.76,1.13-5.71,1.7-8.69,1.7h-136.07c-12.71,0-23.02-10.31-23.02-23.02,0-2.98.58-5.93,1.7-8.69h-28.96c-26.76,0-48.45,21.69-48.45,48.45h0v614.11c0,26.76,21.69,48.45,48.45,48.45h238.65c26.76,0,48.45-21.69,48.45-48.45h0V65.33c0-26.76-21.69-48.45-48.45-48.45Z" style="fill:#fff;"/><path id="b06d66ec-6c84-45dd-8c27-1263a6253192-92" d="m303.66,261.5c0-8.74,4.66-16.81,12.23-21.17-11.69-6.75-26.65-2.75-33.4,8.94-6.75,11.69-2.75,26.65,8.94,33.4,7.57,4.37,16.89,4.37,24.46,0-7.57-4.36-12.23-12.44-12.23-21.17Z" style="fill:#ccc;"/><path id="e73810fe-4cf4-40cc-8c7c-ca544ce30bd4-93" d="m334.4,261.5c0-8.74,4.66-16.81,12.23-21.17-11.69-6.75-26.65-2.75-33.4,8.94-6.75,11.69-2.75,26.65,8.94,33.4,7.57,4.37,16.89,4.37,24.46,0-7.57-4.36-12.23-12.44-12.23-21.17Z" style="fill:#ccc;"/><circle id="a4813fcf-056e-4514-bb8b-e6506f49341f" cx="364.43" cy="261.5" r="24.45" style="fill:#6c63ff;"/><path id="bbe451c3-febc-41ba-8083-4c8307a2e73e-94" d="m405.3,337.87h-142.5c-2.82,0-5.11-2.29-5.12-5.12v-142.5c0-2.82,2.29-5.11,5.12-5.12h142.5c2.82,0,5.11,2.29,5.12,5.12v142.5c0,2.82-2.29,5.11-5.12,5.12Zm-142.5-150.69c-1.69,0-3.07,1.38-3.07,3.07v142.5c0,1.69,1.38,3.07,3.07,3.07h142.5c1.69,0,3.07-1.38,3.07-3.07v-142.5c0-1.69-1.38-3.07-3.07-3.07h-142.5Z" style="fill:#ccc;"/><rect id="bb28937d-932f-4fdf-befe-f406e51091fe" x="218.56" y="447.1" width="218.55" height="2.05" style="fill:#ccc;"/><circle id="fcef55fc-4968-45b2-93bb-1a1080c85fc7" cx="225.46" cy="427.42" r="6.9" style="fill:#6c63ff;"/><rect id="ff33d889-4c74-4b91-85ef-b4882cc8fe76" x="218.56" y="516.12" width="218.55" height="2.05" style="fill:#ccc;"/><circle id="e8fa0310-b872-4adf-aedd-0c6eda09f3b8" cx="225.46" cy="496.44" r="6.9" style="fill:#6c63ff;"/><path d="m433.11,594.71h-69.07c-2.48,0-4.5-2.02-4.5-4.5v-24.21c0-2.48,2.02-4.5,4.5-4.5h69.07c2.48,0,4.5,2.02,4.5,4.5v24.21c0,2.48-2.02,4.5-4.5,4.5Z" style="fill:#6c63ff;"/><circle id="e12ee00d-aa4a-4413-a013-11d20b7f97f7" cx="247.98" cy="427.42" r="6.9" style="fill:#6c63ff;"/><circle id="f58f497e-6949-45c8-be5f-eee2aa0f6586" cx="270.49" cy="427.42" r="6.9" style="fill:#6c63ff;"/><circle id="b4d4939a-c6e6-4f4d-ba6c-e8b05485017d" cx="247.98" cy="496.44" r="6.9" style="fill:#6c63ff;"/><circle id="aff120b1-519b-4e96-ac87-836aa55663de" cx="270.49" cy="496.44" r="6.9" style="fill:#6c63ff;"/><path id="f1094013-1297-477a-ac57-08eac07c4bd5-95" d="m742.07,747.08H24.08c-1.54,0-2.78-.55-2.78-1.22s1.24-1.22,2.78-1.22h717.99c1.54,0,2.78.55,2.78,1.22s-1.25,1.22-2.78,1.22Z" style="fill:#3f3d56;"/><path d="m564.68,489.46c.49.22.96.49,1.41.79l44.85-19.14,1.6-11.82,17.92-.11-1.06,27.1-59.2,15.66c-.12.41-.27.82-.45,1.21-2.4,5.12-8.49,7.32-13.61,4.92-5.12-2.4-7.32-8.49-4.92-13.61,2.37-5.06,8.36-7.28,13.46-5Z" style="fill:#ffb8b8;"/><polygon points="636.98 735.02 624.72 735.02 618.89 687.73 636.98 687.73 636.98 735.02" style="fill:#ffb8b8;"/><path d="m615.96,731.52h23.64v14.89h-38.53c0-8.22,6.67-14.89,14.89-14.89Z" style="fill:#2f2e41;"/><polygon points="684.66 731.56 672.46 732.76 662.02 686.27 680.03 684.5 684.66 731.56" style="fill:#ffb8b8;"/><path d="m663.4,730.13l23.53-2.32h0l1.46,14.82h0l-38.35,3.78h0c-.81-8.18,5.17-15.47,13.36-16.27Z" style="fill:#2f2e41;"/><circle cx="640.39" cy="384.57" r="24.56" style="fill:#ffb8b8;"/><path d="m621.98,725.46c-2.18,0-4.04-1.55-4.41-3.7-6.35-35.23-27.09-150.41-27.58-153.6-.01-.07-.02-.15-.02-.22v-8.59c0-.31.1-.62.28-.87l2.74-3.84c.26-.37.69-.6,1.14-.62,15.62-.73,66.78-2.88,69.26.21h0c2.48,3.1,1.61,12.51,1.4,14.36v.19s23,147,23,147c.37,2.44-1.28,4.73-3.71,5.13l-14.36,2.37c-2.21.35-4.35-.96-5.03-3.09-4.44-14.19-19.33-61.92-24.49-80.39-.07-.27-.35-.42-.61-.35-.22.06-.37.26-.37.49.26,17.61.88,62.52,1.1,78.04l.02,1.67c.02,2.35-1.76,4.32-4.09,4.54l-13.84,1.26c-.14.01-.28.02-.42.02Z" style="fill:#2f2e41;"/><path id="ae7af94f-88d7-4204-9f07-e3651de85c05-96" d="m624.8,418.79c-4.29,2.55-6.85,7.23-8.32,12-2.72,8.82-4.37,17.94-4.88,27.16l-1.56,27.6-19.26,73.17c16.69,14.12,26.32,10.91,48.78-.64s25.03,3.85,25.03,3.85l4.49-62.26,6.42-68.03c-1.44-1.73-3.07-3.3-4.86-4.67-12.02-9.35-27.66-12.66-42.44-9l-3.4.82Z" style="fill:#6c63ff;"/><path d="m618.55,504.24c.52.19,1.02.43,1.5.7l44.35-22.2.74-12.03,18.29-1.26.98,27.41-59.27,19.6c-1.32,5.65-6.96,9.15-12.6,7.84-5.65-1.32-9.15-6.96-7.84-12.6,1.32-5.65,6.96-9.15,12.6-7.84.42.1.84.22,1.25.37h0Z" style="fill:#ffb8b8;"/><path id="a6768b0e-63d0-4b31-8462-9b2e0b00f0fd-97" d="m675.19,431.95c10.91,3.85,12.83,45.57,12.83,45.57-12.84-7.06-28.24,4.49-28.24,4.49,0,0-3.21-10.91-7.06-25.03-2.36-8.07-.43-16.79,5.13-23.11,0,0,6.42-5.78,17.33-1.93Z" style="fill:#6c63ff;"/><path id="bfd7963f-0cf8-4885-9d3a-2c00bccda2e3-98" d="m662.42,391.07c-3.06-2.45-7.24,2-7.24,2l-2.45-22.03s-15.3,1.83-25.09-.61-11.32,8.88-11.32,8.88c-.5-4.57-.61-9.18-.31-13.77.61-5.51,8.57-11.02,22.65-14.69s21.42,12.24,21.42,12.24c9.79,4.9,5.4,30.44,2.34,27.99Z" style="fill:#2f2e41;"/></g></svg>